erDiagram   orders {     VARCHAR id PK "indexed"     VARCHAR account_id FK "indexed"     VARCHAR user_id FK "indexed"     NUMERIC(20-8) average_price "nullable"     DATETIME created_at "indexed"     NUMERIC(20-8) fee "nullable"     NUMERIC(20-8) filled_quantity     ENUM order_status "indexed"     ENUM order_type "indexed"     NUMERIC(20-8) price "nullable"     NUMERIC(20-8) quantity     ENUM side "indexed"     NUMERIC(20-8) stop_price "nullable"     VARCHAR(20) symbol "indexed"     DATETIME updated_at   }    positions {     VARCHAR id PK "indexed"     VARCHAR account_id FK "indexed"     NUMERIC(20-8) average_price     DATETIME created_at     NUMERIC(20-8) current_price     NUMERIC(20-8) current_value     NUMERIC(20-8) quantity     VARCHAR(20) symbol "indexed"     NUMERIC(20-8) unrealized_profit     DATETIME updated_at   }    price_alerts {     VARCHAR id PK "indexed"     VARCHAR user_id FK "indexed"     VARCHAR(10) condition     DATETIME created_at     BOOLEAN is_active     BOOLEAN is_triggered     VARCHAR(20) symbol "indexed"     NUMERIC(20-8) target_price     DATETIME triggered_at "nullable"   }    trading_accounts {     VARCHAR id PK "indexed"     VARCHAR user_id FK "indexed"     NUMERIC(20-8) balance     DATETIME created_at     NUMERIC(20-8) locked_balance     NUMERIC(20-8) total_profit     DATETIME updated_at   }    transactions {     VARCHAR id PK "indexed"     VARCHAR order_id FK "indexed"     VARCHAR user_id FK "indexed"     NUMERIC(20-8) fee     NUMERIC(20-8) price     NUMERIC(20-8) quantity     NUMERIC(20-8) realized_profit "nullable"     ENUM side     VARCHAR(20) symbol "indexed"     DATETIME timestamp "indexed"   }    users {     VARCHAR id PK "indexed"     DATETIME created_at     VARCHAR hashed_password     BOOLEAN is_active     VARCHAR(50) username UK "indexed"   }    trading_accounts ||--o{ orders : account_id   users ||--o{ orders : user_id   trading_accounts ||--o{ positions : account_id   users ||--o{ price_alerts : user_id   users ||--o| trading_accounts : user_id   users ||--o{ transactions : user_id   orders ||--o{ transactions : order_id